<?xml version="1.0" encoding="UTF-8"?>
<svg width="100px" height="98px" viewBox="0 0 100 98" version="1.1" xmlns="http://www.w3.org/2000/svg" xmlns:xlink="http://www.w3.org/1999/xlink">
    <title>Group 3</title>
    <g id="Page-3" stroke="none" stroke-width="1" fill="none" fill-rule="evenodd">
        <g id="Landing-Page" transform="translate(-513.000000, -82.000000)" fill="#1319C5">
            <g id="Group-3" transform="translate(513.030664, 82.700000)">
                <path d="M18.2310545,13.8878906 L32.1958983,15.1085937 L31.8309875,15.5584481 C29.6605918,18.2974459 29.6605918,18.2974459 27.9478514,21.9933594 C26.3365233,25.4113281 26.3365233,25.4113281 25.0181639,30.4894531 C23.6998045,35.5675781 23.6998045,35.5675781 23.6998045,42.2082031 C23.6998045,46.2121094 23.6998045,46.2121094 24.6275389,49.0929687 C25.5552733,51.9738281 25.5552733,51.9738281 27.2642577,53.8537109 C28.973242,55.7335937 28.973242,55.7335937 31.3902342,56.6125 C33.8072264,57.4914062 33.8072264,57.4914062 36.8345702,57.4914062 C39.4224608,57.4914062 39.4224608,57.4914062 41.4244139,56.0753906 C43.426367,54.659375 43.426367,54.659375 44.9400389,52.4132812 C46.4537108,50.1671875 46.4537108,50.1671875 47.5035155,47.3351562 C47.8581137,46.3785657 47.8581137,46.3785657 48.1709301,45.4275461 L48.1693358,14.3 L61.7693358,14.3 L61.7693358,96.3 L48.1693358,96.3 L48.169,73.4758906 L47.8924698,73.867353 C46.509878,75.8034734 45.0346568,77.7362476 43.4668061,79.6656755 L42.6751616,80.6301106 C40.8099798,82.8798085 38.8438463,84.9773958 36.7767613,86.9228726 C34.7096762,88.8683495 32.5629611,90.5801997 30.3366159,92.0584233 C28.1102708,93.536647 25.8422938,94.6411191 23.5326851,95.3718397 C21.2230764,96.1025603 18.8793351,96.3870922 16.5014614,96.2254356 C14.1235876,96.063779 11.7505311,95.2992989 9.38229175,93.9319953 C7.58037053,92.8916556 6.01818605,91.6144236 4.6957383,90.1002994 C3.37329055,88.5861752 2.3281283,86.9336043 1.56025156,85.1425867 C0.792374818,83.3515691 0.3063161,81.4588403 0.102075406,79.4644002 C-0.102165288,77.4699601 8.9941696e-05,75.4648234 0.408841095,73.44899 L0.408841095,73.44899 L14.1129869,77.2668533 L13.9154064,77.5991648 C13.7800051,77.8204761 13.6372419,78.0413279 13.4871167,78.2617203 C13.261929,78.5923089 13.0459187,78.9367257 12.8390859,79.2949707 C12.366325,80.1138165 11.8692758,81.1233509 11.3479383,82.3235739 C10.8266008,83.5237969 10.4699549,84.7508675 10.2780007,86.0047857 C10.0860465,87.2587039 10.1436208,88.4519759 10.4507235,89.5846019 C10.7578263,90.7172279 11.4905666,91.6179358 12.6489445,92.2867256 C13.6271303,92.8514814 14.7072792,93.0315641 15.889391,92.8269738 C17.0715029,92.6223834 18.2890958,92.1482702 19.5421698,91.404634 C20.7952437,90.6609979 22.0745089,89.6936532 23.3799654,88.5026 C24.6854218,87.3115468 25.9671518,86.0129691 27.2251553,84.6068668 C28.4831589,83.2007645 29.686937,81.7548255 30.8364896,80.2690498 C31.9860423,78.7832741 33.0425321,77.3546539 34.0059591,75.9831892 C34.9693862,74.6117246 35.8129448,73.3587061 36.5366351,72.2241337 C37.2603254,71.0895613 37.8142297,70.189619 38.1983479,69.5243067 C39.3507024,67.5283701 40.4848145,65.4451343 41.6006842,63.2745995 C42.161847,62.1830531 42.7123106,61.0874867 43.2520749,59.9879002 L43.011328,60.1769531 C40.8384764,61.8371094 40.8384764,61.8371094 38.1529295,62.7648437 C35.4673827,63.6925781 35.4673827,63.6925781 32.3423827,63.6925781 C27.4595702,63.6925781 27.4595702,63.6925781 23.7242186,61.7638672 C19.988867,59.8351562 19.988867,59.8351562 17.4742186,56.4171875 C14.9595702,52.9992187 14.9595702,52.9992187 13.6900389,48.2873047 C12.4205077,43.5753906 12.4205077,43.5753906 12.4205077,38.0089844 C12.4205077,32.003125 12.4205077,32.003125 13.2994139,27.5353516 C14.1783202,23.0675781 14.1783202,23.0675781 15.301367,19.9914062 C16.5708983,16.4269531 16.5708983,16.4269531 18.2310545,13.8878906 L18.2310545,13.8878906 Z" id="Combined-Shape"></path>
                <rect id="Rectangle" fill-opacity="0.2" transform="translate(57.969336, 4.500000) rotate(-270.000000) translate(-57.969336, -4.500000) " x="53.4693358" y="-36" width="9" height="81"></rect>
            </g>
        </g>
    </g>
</svg>